# xmcd
#
# Track frame offsets: 
#        183
#        12815
#        24298
#        36218
#        49035
#        60895
#        73883
#        86780
#        99068
#        111520
#        124578
#        136473
#        149700
#        161233
#        173090
#        185213
#        198578
#        210385
#
# Disc length: 2955 seconds
#
# Revision: 3
# Processed by: cddbd v1.5.2PL0 Copyright (c) Steve Scherf et al.
# Submitted via: ExactAudioCopyFreeDBPlugin 1.0
#
DISCID=030b8912
DTITLE=Champion Jack Dupree - Junker's Blues
DYEAR=1900
DGENRE=Blues
TTITLE0=Morning Tea
TTITLE1=Chain Gang Blues
TTITLE2=Big Time Mama
TTITLE3=Warehouse Man Blues
TTITLE4=Jackie P. Blues
TTITLE5=Black Woman Swing
TTITLE6=Dupree Shake Dance
TTITLE7=Junker's Blues
TTITLE8=All Alone Blues
TTITLE9=Angola Blues
TTITLE10=Bad Health Blues
TTITLE11=Weed Head Woman
TTITLE12=Heavy Heart Blues
TTITLE13=Cabbage Greens
TTITLE14=How Long Blues
TTITLE15=Mean Ole 'Frisco
TTITLE16=Bad Whiskey And Bad Women
TTITLE17=Bus Station Blues
EXTD=
EXTT0=
EXTT1=
EXTT2=
EXTT3=
EXTT4=
EXTT5=
EXTT6=
EXTT7=
EXTT8=
EXTT9=
EXTT10=
EXTT11=
EXTT12=
EXTT13=
EXTT14=
EXTT15=
EXTT16=
EXTT17=
PLAYORDER=
